<svg xmlns="http://www.w3.org/2000/svg" viewBox="0 0 64 64">
  <g fill="black">
    <!-- Green chain link (NW–SE diagonal) -->
    <g transform="rotate(-45 32 32)">
      <path d="M 15 22 H 49 a 10 10 0 0 1 10 10 v 0 a 10 10 0 0 1 -10 10 H 15 a 10 10 0 0 1 -10 -10 v 0 a 10 10 0 0 1 10 -10 z M 15 25 a 7 7 0 0 0 -7 7 a 7 7 0 0 0 7 7 H 49 a 7 7 0 0 0 7 -7 a 7 7 0 0 0 -7 -7 z"/>
    </g>
    <!-- Blue chain link (NE–SW diagonal) -->
    <g transform="rotate(45 32 32)">
      <path d="M 15 22 H 49 a 10 10 0 0 1 10 10 v 0 a 10 10 0 0 1 -10 10 H 15 a 10 10 0 0 1 -10 -10 v 0 a 10 10 0 0 1 10 -10 z M 15 25 a 7 7 0 0 0 -7 7 a 7 7 0 0 0 7 7 H 49 a 7 7 0 0 0 7 -7 a 7 7 0 0 0 -7 -7 z"/>
    </g>
    <circle cx="32" cy="32" r="3"/>
  </g>
</svg>
